<svg xmlns="http://www.w3.org/2000/svg" xmlns:xlink="http://www.w3.org/1999/xlink" width="377" zoomAndPan="magnify" viewBox="0 0 283.5 283.500005" height="377" preserveAspectRatio="xMidYMid meet" version="1.0"><defs><clipPath id="349d36a83c"><path d="M 1 5 L 280 5 L 280 283 L 1 283 Z M 1 5 " clip-rule="nonzero"/></clipPath></defs><path fill="#ffffff" d="M 0 0 L 283 0 L 283 283 L 0 283 Z M 0 0 " fill-opacity="1" fill-rule="nonzero"/><path fill="#ffffff" d="M 0 0 L 283 0 L 283 283 L 0 283 Z M 0 0 " fill-opacity="1" fill-rule="nonzero"/><g clip-path="url(#349d36a83c)"><path fill="#ffffff" d="M 140.421875 283.070312 C 137.019531 283.070312 133.621094 282.945312 130.226562 282.695312 C 126.835938 282.445312 123.453125 282.066406 120.089844 281.570312 C 116.722656 281.070312 113.378906 280.445312 110.058594 279.699219 C 106.738281 278.953125 103.449219 278.085938 100.191406 277.097656 C 96.9375 276.109375 93.71875 275.003906 90.546875 273.777344 C 87.371094 272.550781 84.246094 271.210938 81.167969 269.753906 C 78.09375 268.300781 75.074219 266.734375 72.113281 265.054688 C 69.152344 263.375 66.257812 261.589844 63.425781 259.699219 C 60.597656 257.808594 57.839844 255.816406 55.160156 253.71875 C 52.476562 251.625 49.875 249.433594 47.351562 247.148438 C 44.832031 244.863281 42.398438 242.488281 40.050781 240.019531 C 37.703125 237.554688 35.449219 235.007812 33.292969 232.375 C 31.132812 229.742188 29.074219 227.035156 27.113281 224.25 C 25.15625 221.46875 23.300781 218.617188 21.550781 215.695312 C 19.800781 212.777344 18.160156 209.796875 16.632812 206.753906 C 15.101562 203.714844 13.683594 200.621094 12.382812 197.472656 C 11.082031 194.328125 9.894531 191.140625 8.828125 187.90625 C 7.761719 184.675781 6.8125 181.40625 5.988281 178.105469 C 5.160156 174.800781 4.457031 171.472656 3.875 168.121094 C 3.292969 164.765625 2.832031 161.394531 2.5 158.003906 C 2.167969 154.617188 1.957031 151.222656 1.875 147.816406 C 1.789062 144.414062 1.832031 141.011719 2 137.613281 C 2.164062 134.210938 2.457031 130.820312 2.875 127.441406 C 3.289062 124.0625 3.832031 120.707031 4.496094 117.367188 C 5.15625 114.027344 5.945312 110.714844 6.851562 107.433594 C 7.757812 104.152344 8.785156 100.910156 9.933594 97.707031 C 11.078125 94.5 12.339844 91.339844 13.71875 88.226562 C 15.097656 85.117188 16.589844 82.058594 18.195312 79.054688 C 19.796875 76.050781 21.511719 73.113281 23.332031 70.238281 C 25.152344 67.359375 27.074219 64.554688 29.101562 61.820312 C 31.128906 59.085938 33.253906 56.429688 35.476562 53.851562 C 37.699219 51.273438 40.011719 48.78125 42.417969 46.371094 C 44.023438 44.761719 45.664062 43.191406 47.34375 41.664062 C 49.023438 40.132812 50.738281 38.648438 52.492188 37.203125 C 54.246094 35.757812 56.03125 34.355469 57.855469 33 C 59.675781 31.640625 61.53125 30.332031 63.414062 29.0625 C 65.300781 27.796875 67.21875 26.578125 69.164062 25.410156 C 71.109375 24.238281 73.082031 23.113281 75.085938 22.039062 C 77.085938 20.964844 79.113281 19.941406 81.164062 18.964844 C 83.214844 17.988281 85.289062 17.066406 87.386719 16.195312 C 89.484375 15.320312 91.601562 14.5 93.738281 13.730469 C 95.875 12.960938 98.03125 12.246094 100.203125 11.585938 C 102.375 10.921875 104.5625 10.3125 106.765625 9.757812 C 108.96875 9.203125 111.183594 8.703125 113.410156 8.253906 C 115.636719 7.808594 117.875 7.417969 120.121094 7.082031 C 122.367188 6.746094 124.617188 6.464844 126.878906 6.238281 C 129.140625 6.015625 131.402344 5.84375 133.671875 5.730469 C 135.941406 5.617188 138.210938 5.558594 140.480469 5.554688 C 142.753906 5.554688 145.023438 5.605469 147.289062 5.714844 C 149.558594 5.824219 151.824219 5.988281 154.085938 6.210938 C 156.34375 6.429688 158.597656 6.707031 160.84375 7.039062 C 163.09375 7.371094 165.328125 7.757812 167.558594 8.199219 C 169.785156 8.640625 172 9.136719 174.203125 9.6875 C 176.410156 10.238281 178.597656 10.839844 180.769531 11.5 C 182.945312 12.15625 185.101562 12.867188 187.242188 13.632812 C 189.378906 14.398438 191.5 15.214844 193.597656 16.082031 C 195.695312 16.949219 197.773438 17.871094 199.824219 18.839844 C 201.878906 19.8125 203.90625 20.832031 205.910156 21.902344 C 207.914062 22.972656 209.890625 24.089844 211.839844 25.257812 C 213.789062 26.425781 215.707031 27.640625 217.59375 28.902344 C 219.484375 30.164062 221.339844 31.472656 223.164062 32.824219 C 224.988281 34.179688 226.78125 35.574219 228.535156 37.015625 C 230.292969 38.457031 232.011719 39.941406 233.695312 41.46875 C 235.375 42.992188 237.019531 44.558594 238.628906 46.164062 C 240.234375 47.773438 241.800781 49.417969 243.324219 51.101562 C 244.847656 52.785156 246.332031 54.503906 247.773438 56.261719 C 249.214844 58.019531 250.609375 59.808594 251.960938 61.636719 C 253.316406 63.460938 254.621094 65.316406 255.882812 67.207031 C 257.144531 69.097656 258.359375 71.015625 259.527344 72.964844 C 260.691406 74.914062 261.8125 76.890625 262.882812 78.894531 C 263.953125 80.898438 264.972656 82.929688 265.941406 84.984375 C 266.910156 87.039062 267.832031 89.117188 268.699219 91.214844 C 269.566406 93.316406 270.382812 95.433594 271.148438 97.574219 C 271.910156 99.714844 272.621094 101.871094 273.28125 104.046875 C 273.9375 106.222656 274.542969 108.410156 275.089844 110.617188 C 275.640625 112.820312 276.136719 115.035156 276.578125 117.265625 C 277.019531 119.496094 277.40625 121.734375 277.738281 123.980469 C 278.070312 126.230469 278.34375 128.484375 278.566406 130.746094 C 278.785156 133.007812 278.953125 135.273438 279.058594 137.542969 C 279.167969 139.8125 279.222656 142.082031 279.222656 144.355469 C 279.21875 146.625 279.160156 148.898438 279.046875 151.167969 C 278.933594 153.4375 278.761719 155.699219 278.539062 157.960938 C 278.3125 160.222656 278.03125 162.476562 277.695312 164.722656 C 277.359375 166.972656 276.96875 169.207031 276.523438 171.4375 C 276.074219 173.664062 275.574219 175.878906 275.019531 178.082031 C 274.464844 180.285156 273.855469 182.476562 273.195312 184.648438 C 272.53125 186.820312 271.816406 188.976562 271.046875 191.117188 C 270.28125 193.253906 269.460938 195.371094 268.585938 197.46875 C 267.714844 199.566406 266.792969 201.644531 265.816406 203.695312 C 264.84375 205.75 263.816406 207.777344 262.742188 209.777344 C 261.671875 211.78125 260.546875 213.753906 259.375 215.699219 C 258.207031 217.648438 256.988281 219.566406 255.722656 221.453125 C 254.457031 223.339844 253.144531 225.191406 251.789062 227.015625 C 250.433594 228.839844 249.03125 230.625 247.589844 232.378906 C 246.144531 234.132812 244.65625 235.851562 243.128906 237.53125 C 241.601562 239.210938 240.03125 240.851562 238.421875 242.457031 C 235.21875 245.679688 231.867188 248.734375 228.363281 251.621094 C 224.859375 254.511719 221.222656 257.222656 217.449219 259.75 C 213.675781 262.28125 209.789062 264.617188 205.785156 266.761719 C 201.785156 268.90625 197.683594 270.847656 193.488281 272.585938 C 189.292969 274.324219 185.023438 275.851562 180.679688 277.167969 C 176.332031 278.484375 171.929688 279.582031 167.476562 280.460938 C 163.023438 281.339844 158.535156 282 154.015625 282.433594 C 149.496094 282.871094 144.964844 283.082031 140.421875 283.070312 Z M 140.421875 283.070312 " fill-opacity="1" fill-rule="nonzero"/></g><path fill="#9b8ef8" d="M 265.761719 144.417969 C 265.761719 213.683594 209.660156 269.808594 140.421875 269.808594 C 71.1875 269.808594 15.066406 213.644531 15.066406 144.398438 C 15.066406 75.152344 71.207031 18.984375 140.421875 18.984375 C 209.640625 18.984375 265.761719 75.152344 265.761719 144.417969 Z M 265.761719 144.417969 " fill-opacity="1" fill-rule="nonzero"/><path fill="#f9da4a" d="M 238.421875 144.417969 C 238.421875 146.023438 238.382812 147.625 238.304688 149.226562 C 238.226562 150.832031 238.105469 152.429688 237.949219 154.027344 C 237.792969 155.625 237.597656 157.214844 237.359375 158.804688 C 237.125 160.390625 236.851562 161.972656 236.539062 163.546875 C 236.226562 165.121094 235.875 166.683594 235.484375 168.242188 C 235.09375 169.796875 234.667969 171.34375 234.203125 172.878906 C 233.734375 174.414062 233.234375 175.9375 232.691406 177.449219 C 232.152344 178.960938 231.574219 180.457031 230.960938 181.9375 C 230.347656 183.421875 229.699219 184.886719 229.011719 186.339844 C 228.324219 187.789062 227.605469 189.222656 226.847656 190.636719 C 226.09375 192.050781 225.300781 193.449219 224.476562 194.824219 C 223.652344 196.199219 222.796875 197.554688 221.902344 198.890625 C 221.011719 200.222656 220.089844 201.535156 219.132812 202.824219 C 218.179688 204.113281 217.191406 205.378906 216.175781 206.617188 C 215.15625 207.859375 214.109375 209.074219 213.03125 210.261719 C 211.957031 211.449219 210.851562 212.613281 209.714844 213.746094 C 208.582031 214.882812 207.421875 215.988281 206.230469 217.066406 C 205.042969 218.144531 203.828125 219.191406 202.589844 220.207031 C 201.347656 221.226562 200.085938 222.214844 198.796875 223.167969 C 197.507812 224.125 196.199219 225.046875 194.863281 225.941406 C 193.53125 226.832031 192.175781 227.691406 190.800781 228.515625 C 189.425781 229.339844 188.03125 230.128906 186.613281 230.886719 C 185.199219 231.644531 183.769531 232.363281 182.316406 233.050781 C 180.867188 233.738281 179.402344 234.386719 177.921875 235 C 176.4375 235.613281 174.941406 236.191406 173.433594 236.730469 C 171.921875 237.273438 170.398438 237.777344 168.863281 238.242188 C 167.328125 238.707031 165.785156 239.136719 164.230469 239.523438 C 162.671875 239.914062 161.109375 240.265625 159.535156 240.578125 C 157.960938 240.890625 156.382812 241.167969 154.796875 241.402344 C 153.207031 241.636719 151.617188 241.832031 150.019531 241.992188 C 148.425781 242.148438 146.824219 242.265625 145.222656 242.34375 C 143.621094 242.421875 142.019531 242.464844 140.414062 242.464844 C 138.8125 242.464844 137.207031 242.421875 135.605469 242.34375 C 134.003906 242.265625 132.40625 242.148438 130.808594 241.992188 C 129.210938 241.832031 127.621094 241.636719 126.035156 241.402344 C 124.449219 241.164062 122.867188 240.890625 121.296875 240.578125 C 119.722656 240.265625 118.15625 239.914062 116.601562 239.523438 C 115.046875 239.132812 113.5 238.707031 111.964844 238.242188 C 110.429688 237.773438 108.910156 237.269531 107.398438 236.730469 C 105.886719 236.191406 104.390625 235.613281 102.910156 235 C 101.429688 234.382812 99.960938 233.734375 98.511719 233.046875 C 97.0625 232.363281 95.628906 231.640625 94.214844 230.882812 C 92.800781 230.128906 91.40625 229.335938 90.03125 228.511719 C 88.65625 227.6875 87.300781 226.828125 85.964844 225.9375 C 84.632812 225.046875 83.320312 224.121094 82.035156 223.167969 C 80.746094 222.210938 79.480469 221.222656 78.242188 220.207031 C 77 219.1875 75.789062 218.140625 74.597656 217.0625 C 73.410156 215.984375 72.25 214.878906 71.117188 213.742188 C 69.980469 212.609375 68.875 211.449219 67.796875 210.257812 C 66.722656 209.070312 65.675781 207.855469 64.65625 206.613281 C 63.640625 205.375 62.652344 204.109375 61.699219 202.820312 C 60.742188 201.53125 59.820312 200.21875 58.929688 198.886719 C 58.035156 197.550781 57.179688 196.195312 56.355469 194.820312 C 55.53125 193.445312 54.738281 192.046875 53.984375 190.632812 C 53.226562 189.21875 52.507812 187.785156 51.820312 186.335938 C 51.136719 184.882812 50.484375 183.417969 49.871094 181.933594 C 49.257812 180.453125 48.679688 178.957031 48.140625 177.445312 C 47.601562 175.933594 47.097656 174.410156 46.632812 172.875 C 46.167969 171.339844 45.738281 169.792969 45.347656 168.238281 C 44.960938 166.679688 44.609375 165.113281 44.296875 163.542969 C 43.984375 161.96875 43.707031 160.386719 43.472656 158.800781 C 43.238281 157.210938 43.042969 155.621094 42.882812 154.023438 C 42.726562 152.425781 42.609375 150.828125 42.53125 149.222656 C 42.453125 147.621094 42.414062 146.019531 42.414062 144.414062 C 42.414062 142.808594 42.453125 141.203125 42.53125 139.601562 C 42.609375 138 42.726562 136.398438 42.886719 134.804688 C 43.042969 133.207031 43.238281 131.613281 43.472656 130.027344 C 43.710938 128.441406 43.984375 126.859375 44.296875 125.285156 C 44.609375 123.710938 44.960938 122.144531 45.351562 120.589844 C 45.742188 119.035156 46.167969 117.488281 46.632812 115.953125 C 47.101562 114.417969 47.601562 112.894531 48.144531 111.382812 C 48.683594 109.871094 49.261719 108.375 49.875 106.894531 C 50.488281 105.410156 51.140625 103.945312 51.824219 102.492188 C 52.511719 101.042969 53.230469 99.609375 53.988281 98.195312 C 54.742188 96.78125 55.535156 95.382812 56.359375 94.007812 C 57.183594 92.632812 58.042969 91.277344 58.933594 89.941406 C 59.824219 88.609375 60.746094 87.296875 61.703125 86.007812 C 62.660156 84.71875 63.644531 83.453125 64.664062 82.214844 C 65.679688 80.972656 66.726562 79.757812 67.804688 78.570312 C 68.882812 77.382812 69.988281 76.21875 71.121094 75.085938 C 72.257812 73.949219 73.417969 72.84375 74.605469 71.765625 C 75.792969 70.6875 77.007812 69.640625 78.25 68.625 C 79.488281 67.605469 80.753906 66.617188 82.039062 65.664062 C 83.328125 64.707031 84.640625 63.785156 85.972656 62.890625 C 87.308594 62 88.664062 61.144531 90.039062 60.316406 C 91.414062 59.492188 92.808594 58.703125 94.222656 57.945312 C 95.636719 57.191406 97.070312 56.46875 98.519531 55.78125 C 99.96875 55.097656 101.4375 54.445312 102.917969 53.832031 C 104.398438 53.21875 105.894531 52.640625 107.40625 52.101562 C 108.917969 51.5625 110.4375 51.058594 111.972656 50.59375 C 113.507812 50.125 115.054688 49.699219 116.609375 49.308594 C 118.164062 48.917969 119.730469 48.566406 121.304688 48.253906 C 122.875 47.941406 124.457031 47.667969 126.042969 47.433594 C 127.628906 47.195312 129.222656 47 130.816406 46.84375 C 132.414062 46.6875 134.011719 46.570312 135.613281 46.488281 C 137.214844 46.410156 138.820312 46.371094 140.421875 46.371094 C 142.027344 46.371094 143.628906 46.410156 145.234375 46.488281 C 146.835938 46.570312 148.433594 46.6875 150.03125 46.84375 C 151.625 47 153.21875 47.199219 154.804688 47.433594 C 156.390625 47.667969 157.96875 47.941406 159.542969 48.257812 C 161.117188 48.570312 162.679688 48.921875 164.234375 49.308594 C 165.792969 49.699219 167.335938 50.128906 168.871094 50.59375 C 170.40625 51.058594 171.929688 51.5625 173.441406 52.101562 C 174.949219 52.644531 176.445312 53.222656 177.925781 53.835938 C 179.410156 54.449219 180.875 55.097656 182.324219 55.785156 C 183.773438 56.472656 185.207031 57.191406 186.621094 57.949219 C 188.035156 58.707031 189.429688 59.496094 190.804688 60.320312 C 192.183594 61.144531 193.535156 62.003906 194.871094 62.894531 C 196.203125 63.789062 197.515625 64.710938 198.804688 65.667969 C 200.089844 66.621094 201.355469 67.609375 202.59375 68.628906 C 203.835938 69.644531 205.050781 70.695312 206.238281 71.769531 C 207.425781 72.847656 208.585938 73.953125 209.722656 75.089844 C 210.855469 76.222656 211.960938 77.386719 213.039062 78.574219 C 214.113281 79.761719 215.160156 80.976562 216.179688 82.21875 C 217.195312 83.457031 218.183594 84.722656 219.136719 86.011719 C 220.09375 87.300781 221.015625 88.613281 221.90625 89.945312 C 222.800781 91.28125 223.65625 92.636719 224.480469 94.011719 C 225.304688 95.390625 226.097656 96.785156 226.851562 98.199219 C 227.609375 99.613281 228.328125 101.046875 229.015625 102.5 C 229.699219 103.949219 230.351562 105.414062 230.964844 106.898438 C 231.578125 108.378906 232.15625 109.875 232.695312 111.386719 C 233.234375 112.898438 233.738281 114.421875 234.203125 115.957031 C 234.667969 117.492188 235.097656 119.039062 235.484375 120.59375 C 235.875 122.152344 236.226562 123.714844 236.539062 125.289062 C 236.851562 126.863281 237.125 128.445312 237.363281 130.03125 C 237.597656 131.617188 237.792969 133.210938 237.949219 134.808594 C 238.105469 136.40625 238.226562 138.003906 238.304688 139.605469 C 238.382812 141.210938 238.421875 142.8125 238.421875 144.417969 Z M 238.421875 144.417969 " fill-opacity="1" fill-rule="nonzero"/><path fill="#000000" d="M 140.421875 46.371094 C 142.027344 46.371094 143.628906 46.410156 145.234375 46.488281 C 146.835938 46.570312 148.433594 46.6875 150.03125 46.84375 C 151.625 47 153.21875 47.199219 154.804688 47.433594 C 156.390625 47.667969 157.96875 47.941406 159.542969 48.257812 C 161.117188 48.570312 162.679688 48.921875 164.238281 49.308594 C 165.792969 49.699219 167.339844 50.128906 168.871094 50.59375 C 170.40625 51.058594 171.929688 51.5625 173.441406 52.101562 C 174.949219 52.644531 176.445312 53.222656 177.929688 53.835938 C 179.410156 54.449219 180.875 55.097656 182.324219 55.785156 C 183.777344 56.472656 185.207031 57.191406 186.621094 57.949219 C 188.035156 58.707031 189.433594 59.496094 190.808594 60.320312 C 192.183594 61.144531 193.539062 62.003906 194.871094 62.894531 C 196.207031 63.789062 197.515625 64.710938 198.804688 65.667969 C 200.09375 66.621094 201.355469 67.609375 202.597656 68.628906 C 203.835938 69.644531 205.050781 70.691406 206.238281 71.769531 C 207.425781 72.847656 208.589844 73.953125 209.722656 75.089844 C 210.855469 76.222656 211.960938 77.386719 213.039062 78.574219 C 214.117188 79.761719 215.164062 80.976562 216.183594 82.21875 C 217.199219 83.457031 218.1875 84.722656 219.140625 86.011719 C 220.097656 87.300781 221.019531 88.613281 221.910156 89.945312 C 222.800781 91.28125 223.660156 92.636719 224.484375 94.011719 C 225.308594 95.386719 226.097656 96.785156 226.855469 98.199219 C 227.613281 99.613281 228.332031 101.046875 229.019531 102.496094 C 229.703125 103.949219 230.355469 105.414062 230.96875 106.898438 C 231.582031 108.378906 232.160156 109.875 232.699219 111.386719 C 233.238281 112.898438 233.742188 114.421875 234.207031 115.957031 C 234.671875 117.492188 235.101562 119.039062 235.492188 120.59375 C 235.878906 122.152344 236.230469 123.714844 236.542969 125.289062 C 236.859375 126.863281 237.132812 128.445312 237.367188 130.03125 C 237.601562 131.617188 237.796875 133.210938 237.957031 134.808594 C 238.113281 136.402344 238.230469 138.003906 238.308594 139.605469 C 238.386719 141.210938 238.429688 142.8125 238.429688 144.417969 C 238.429688 146.023438 238.386719 147.625 238.308594 149.226562 C 238.230469 150.832031 238.113281 152.429688 237.957031 154.027344 C 237.796875 155.625 237.601562 157.214844 237.367188 158.804688 C 237.132812 160.390625 236.859375 161.972656 236.542969 163.546875 C 236.230469 165.117188 235.878906 166.683594 235.492188 168.242188 C 235.101562 169.796875 234.671875 171.34375 234.207031 172.878906 C 233.742188 174.414062 233.238281 175.9375 232.699219 177.449219 C 232.160156 178.957031 231.582031 180.457031 230.96875 181.9375 C 230.355469 183.421875 229.703125 184.886719 229.019531 186.335938 C 228.332031 187.789062 227.613281 189.222656 226.855469 190.636719 C 226.097656 192.050781 225.308594 193.445312 224.484375 194.824219 C 223.660156 196.199219 222.800781 197.554688 221.910156 198.890625 C 221.019531 200.222656 220.097656 201.535156 219.140625 202.824219 C 218.1875 204.113281 217.199219 205.375 216.183594 206.617188 C 215.164062 207.855469 214.117188 209.070312 213.039062 210.261719 C 211.960938 211.449219 210.855469 212.613281 209.722656 213.746094 C 208.589844 214.878906 207.425781 215.988281 206.238281 217.0625 C 205.050781 218.140625 203.835938 219.191406 202.597656 220.207031 C 201.355469 221.226562 200.09375 222.210938 198.804688 223.167969 C 197.515625 224.125 196.207031 225.046875 194.871094 225.9375 C 193.539062 226.832031 192.183594 227.6875 190.808594 228.515625 C 189.433594 229.339844 188.035156 230.128906 186.621094 230.886719 C 185.207031 231.640625 183.777344 232.363281 182.324219 233.050781 C 180.875 233.734375 179.410156 234.386719 177.929688 235 C 176.445312 235.613281 174.949219 236.191406 173.441406 236.730469 C 171.929688 237.273438 170.40625 237.777344 168.871094 238.242188 C 167.339844 238.707031 165.792969 239.136719 164.238281 239.523438 C 162.679688 239.914062 161.117188 240.265625 159.542969 240.578125 C 157.96875 240.890625 156.390625 241.167969 154.804688 241.402344 C 153.21875 241.636719 151.625 241.832031 150.03125 241.992188 C 148.433594 242.148438 146.835938 242.265625 145.234375 242.34375 C 143.628906 242.421875 142.027344 242.464844 140.421875 242.464844 C 138.820312 242.464844 137.21875 242.421875 135.613281 242.34375 C 134.011719 242.265625 132.414062 242.148438 130.816406 241.992188 C 129.222656 241.832031 127.628906 241.636719 126.042969 241.402344 C 124.457031 241.167969 122.878906 240.890625 121.304688 240.578125 C 119.730469 240.265625 118.167969 239.914062 116.609375 239.523438 C 115.054688 239.136719 113.507812 238.707031 111.972656 238.242188 C 110.441406 237.777344 108.917969 237.273438 107.40625 236.730469 C 105.898438 236.191406 104.402344 235.613281 102.917969 235 C 101.4375 234.386719 99.972656 233.734375 98.523438 233.050781 C 97.070312 232.363281 95.640625 231.640625 94.226562 230.886719 C 92.808594 230.128906 91.414062 229.339844 90.039062 228.515625 C 88.664062 227.6875 87.308594 226.832031 85.976562 225.9375 C 84.640625 225.046875 83.332031 224.125 82.042969 223.167969 C 80.753906 222.210938 79.492188 221.226562 78.25 220.207031 C 77.011719 219.191406 75.796875 218.140625 74.609375 217.0625 C 73.417969 215.988281 72.257812 214.878906 71.125 213.746094 C 69.988281 212.613281 68.882812 211.449219 67.808594 210.261719 C 66.730469 209.070312 65.683594 207.855469 64.664062 206.617188 C 63.648438 205.375 62.660156 204.113281 61.707031 202.824219 C 60.75 201.535156 59.828125 200.222656 58.9375 198.890625 C 58.046875 197.554688 57.1875 196.199219 56.363281 194.824219 C 55.539062 193.445312 54.746094 192.050781 53.992188 190.636719 C 53.234375 189.222656 52.515625 187.789062 51.828125 186.335938 C 51.144531 184.886719 50.492188 183.421875 49.878906 181.9375 C 49.265625 180.457031 48.6875 178.957031 48.148438 177.449219 C 47.609375 175.9375 47.105469 174.414062 46.640625 172.878906 C 46.175781 171.34375 45.746094 169.796875 45.355469 168.242188 C 44.96875 166.683594 44.617188 165.117188 44.300781 163.546875 C 43.988281 161.972656 43.714844 160.390625 43.480469 158.804688 C 43.246094 157.214844 43.046875 155.625 42.890625 154.027344 C 42.734375 152.429688 42.617188 150.832031 42.539062 149.226562 C 42.457031 147.625 42.417969 146.023438 42.417969 144.417969 C 42.417969 142.8125 42.457031 141.210938 42.539062 139.605469 C 42.617188 138.003906 42.734375 136.402344 42.890625 134.808594 C 43.046875 133.210938 43.246094 131.617188 43.480469 130.03125 C 43.714844 128.445312 43.988281 126.863281 44.300781 125.289062 C 44.617188 123.714844 44.96875 122.152344 45.355469 120.59375 C 45.746094 119.039062 46.175781 117.492188 46.640625 115.957031 C 47.105469 114.421875 47.609375 112.898438 48.148438 111.386719 C 48.6875 109.875 49.265625 108.378906 49.878906 106.898438 C 50.492188 105.414062 51.144531 103.949219 51.828125 102.496094 C 52.515625 101.046875 53.234375 99.613281 53.992188 98.199219 C 54.746094 96.785156 55.539062 95.386719 56.363281 94.011719 C 57.1875 92.636719 58.046875 91.28125 58.9375 89.945312 C 59.828125 88.613281 60.75 87.300781 61.707031 86.011719 C 62.660156 84.722656 63.648438 83.457031 64.664062 82.21875 C 65.683594 80.976562 66.730469 79.761719 67.808594 78.574219 C 68.882812 77.386719 69.988281 76.222656 71.125 75.089844 C 72.257812 73.953125 73.417969 72.847656 74.609375 71.769531 C 75.796875 70.691406 77.011719 69.644531 78.25 68.628906 C 79.492188 67.609375 80.753906 66.621094 82.042969 65.667969 C 83.332031 64.710938 84.640625 63.789062 85.976562 62.894531 C 87.308594 62.003906 88.664062 61.144531 90.039062 60.320312 C 91.414062 59.496094 92.808594 58.707031 94.226562 57.949219 C 95.640625 57.191406 97.070312 56.472656 98.523438 55.785156 C 99.972656 55.097656 101.4375 54.449219 102.917969 53.835938 C 104.402344 53.222656 105.898438 52.644531 107.40625 52.101562 C 108.917969 51.5625 110.441406 51.058594 111.972656 50.59375 C 113.507812 50.128906 115.054688 49.699219 116.609375 49.308594 C 118.167969 48.921875 119.730469 48.570312 121.304688 48.257812 C 122.878906 47.941406 124.457031 47.667969 126.042969 47.433594 C 127.628906 47.199219 129.222656 47 130.816406 46.84375 C 132.414062 46.6875 134.011719 46.570312 135.613281 46.488281 C 137.21875 46.410156 138.820312 46.371094 140.421875 46.371094 M 140.421875 42.820312 C 138.484375 42.820312 136.546875 42.875 134.609375 42.984375 C 132.675781 43.097656 130.742188 43.261719 128.816406 43.484375 C 126.890625 43.703125 124.96875 43.980469 123.058594 44.3125 C 121.148438 44.640625 119.25 45.027344 117.359375 45.46875 C 115.46875 45.90625 113.597656 46.402344 111.734375 46.949219 C 109.875 47.496094 108.03125 48.09375 106.203125 48.75 C 104.378906 49.402344 102.574219 50.105469 100.785156 50.863281 C 99 51.621094 97.238281 52.425781 95.5 53.285156 C 93.757812 54.140625 92.046875 55.046875 90.355469 56.003906 C 88.667969 56.960938 87.011719 57.960938 85.378906 59.011719 C 83.75 60.0625 82.152344 61.160156 80.582031 62.304688 C 79.015625 63.445312 77.484375 64.632812 75.984375 65.863281 C 74.484375 67.09375 73.019531 68.367188 71.59375 69.679688 C 70.167969 70.992188 68.777344 72.347656 67.429688 73.742188 C 66.082031 75.136719 64.773438 76.566406 63.503906 78.035156 C 62.238281 79.503906 61.011719 81.007812 59.832031 82.546875 C 58.652344 84.085938 57.515625 85.65625 56.425781 87.261719 C 55.332031 88.863281 54.289062 90.5 53.292969 92.164062 C 52.292969 93.828125 51.34375 95.515625 50.445312 97.234375 C 49.542969 98.953125 48.691406 100.695312 47.890625 102.464844 C 47.089844 104.230469 46.339844 106.019531 45.640625 107.828125 C 44.945312 109.640625 44.296875 111.46875 43.703125 113.316406 C 43.109375 115.160156 42.570312 117.023438 42.082031 118.902344 C 41.59375 120.78125 41.160156 122.671875 40.78125 124.574219 C 40.402344 126.476562 40.078125 128.386719 39.808594 130.308594 C 39.542969 132.230469 39.328125 134.160156 39.167969 136.09375 C 39.007812 138.027344 38.90625 139.960938 38.855469 141.902344 C 38.808594 143.839844 38.816406 145.78125 38.878906 147.71875 C 38.941406 149.660156 39.058594 151.59375 39.234375 153.527344 C 39.40625 155.460938 39.636719 157.386719 39.921875 159.304688 C 40.203125 161.222656 40.542969 163.132812 40.9375 165.035156 C 41.332031 166.933594 41.777344 168.820312 42.28125 170.695312 C 42.78125 172.570312 43.335938 174.425781 43.945312 176.269531 C 44.550781 178.113281 45.210938 179.9375 45.921875 181.742188 C 46.636719 183.546875 47.398438 185.328125 48.214844 187.089844 C 49.027344 188.847656 49.890625 190.585938 50.804688 192.296875 C 51.71875 194.007812 52.683594 195.691406 53.691406 197.347656 C 54.703125 199.003906 55.757812 200.628906 56.863281 202.226562 C 57.964844 203.820312 59.113281 205.382812 60.304688 206.914062 C 61.5 208.445312 62.734375 209.9375 64.011719 211.398438 C 65.292969 212.855469 66.609375 214.277344 67.96875 215.660156 C 69.332031 217.042969 70.726562 218.386719 72.164062 219.691406 C 73.601562 220.996094 75.074219 222.253906 76.582031 223.472656 C 78.09375 224.691406 79.636719 225.867188 81.210938 227 C 82.789062 228.128906 84.394531 229.214844 86.03125 230.25 C 87.671875 231.289062 89.335938 232.28125 91.03125 233.222656 C 92.726562 234.167969 94.449219 235.058594 96.195312 235.902344 C 97.941406 236.75 99.710938 237.542969 101.5 238.285156 C 103.292969 239.027344 105.105469 239.71875 106.933594 240.355469 C 108.765625 240.996094 110.613281 241.582031 112.480469 242.117188 C 114.34375 242.648438 116.222656 243.128906 118.113281 243.554688 C 120.007812 243.980469 121.910156 244.351562 123.824219 244.667969 C 125.734375 244.984375 127.65625 245.246094 129.585938 245.449219 C 131.515625 245.65625 133.445312 245.808594 135.382812 245.902344 C 137.320312 246 139.257812 246.039062 141.199219 246.023438 C 143.136719 246.007812 145.074219 245.9375 147.011719 245.808594 C 148.945312 245.683594 150.875 245.5 152.800781 245.265625 C 154.726562 245.027344 156.640625 244.734375 158.550781 244.386719 C 160.457031 244.042969 162.355469 243.640625 164.238281 243.183594 C 166.125 242.730469 167.996094 242.21875 169.851562 241.65625 C 171.707031 241.09375 173.546875 240.476562 175.367188 239.808594 C 177.1875 239.140625 178.988281 238.421875 180.765625 237.648438 C 182.546875 236.878906 184.300781 236.058594 186.035156 235.183594 C 187.765625 234.3125 189.472656 233.390625 191.152344 232.421875 C 192.832031 231.453125 194.484375 230.433594 196.105469 229.371094 C 197.726562 228.304688 199.316406 227.195312 200.871094 226.039062 C 202.429688 224.886719 203.953125 223.6875 205.445312 222.441406 C 206.933594 221.199219 208.386719 219.914062 209.800781 218.589844 C 211.214844 217.261719 212.59375 215.898438 213.929688 214.492188 C 215.269531 213.089844 216.5625 211.644531 217.820312 210.167969 C 219.074219 208.6875 220.285156 207.171875 221.453125 205.625 C 222.621094 204.074219 223.746094 202.496094 224.824219 200.882812 C 225.898438 199.269531 226.929688 197.625 227.914062 195.953125 C 228.898438 194.28125 229.832031 192.582031 230.71875 190.855469 C 231.605469 189.132812 232.441406 187.382812 233.226562 185.609375 C 234.015625 183.835938 234.75 182.039062 235.433594 180.222656 C 236.117188 178.40625 236.746094 176.574219 237.324219 174.722656 C 237.902344 172.871094 238.429688 171.003906 238.898438 169.121094 C 239.371094 167.238281 239.789062 165.34375 240.152344 163.441406 C 240.515625 161.535156 240.820312 159.617188 241.074219 157.695312 C 241.328125 155.773438 241.527344 153.84375 241.667969 151.90625 C 241.8125 149.972656 241.898438 148.035156 241.933594 146.09375 C 241.964844 144.15625 241.941406 142.214844 241.859375 140.277344 C 241.78125 138.339844 241.648438 136.40625 241.457031 134.472656 C 241.265625 132.542969 241.023438 130.617188 240.722656 128.703125 C 240.421875 126.785156 240.066406 124.878906 239.65625 122.980469 C 239.25 121.085938 238.785156 119.203125 238.269531 117.332031 C 237.75 115.460938 237.179688 113.609375 236.558594 111.769531 C 235.933594 109.933594 235.257812 108.117188 234.53125 106.316406 C 233.804688 104.519531 233.027344 102.742188 232.199219 100.988281 C 231.367188 99.234375 230.488281 97.507812 229.5625 95.800781 C 228.632812 94.097656 227.65625 92.421875 226.632812 90.777344 C 225.609375 89.128906 224.539062 87.511719 223.421875 85.925781 C 222.304688 84.339844 221.144531 82.785156 219.9375 81.265625 C 218.734375 79.746094 217.484375 78.261719 216.195312 76.8125 C 214.90625 75.363281 213.574219 73.953125 212.203125 72.582031 C 209.855469 70.222656 207.402344 67.984375 204.835938 65.867188 C 202.269531 63.753906 199.605469 61.765625 196.839844 59.914062 C 194.078125 58.0625 191.230469 56.347656 188.300781 54.777344 C 185.367188 53.207031 182.363281 51.785156 179.292969 50.511719 C 176.21875 49.238281 173.089844 48.117188 169.910156 47.152344 C 166.726562 46.1875 163.503906 45.382812 160.238281 44.738281 C 156.976562 44.09375 153.6875 43.609375 150.378906 43.289062 C 147.066406 42.96875 143.75 42.8125 140.421875 42.820312 Z M 140.421875 42.820312 " fill-opacity="1" fill-rule="nonzero"/><path fill="#000000" d="M 140.421875 246.332031 C 138.480469 246.328125 136.535156 246.273438 134.59375 246.164062 C 132.652344 246.050781 130.714844 245.882812 128.78125 245.660156 C 126.851562 245.4375 124.925781 245.160156 123.011719 244.828125 C 121.09375 244.496094 119.1875 244.105469 117.296875 243.664062 C 115.402344 243.222656 113.523438 242.726562 111.65625 242.175781 C 109.789062 241.628906 107.941406 241.023438 106.109375 240.371094 C 104.28125 239.714844 102.46875 239.007812 100.679688 238.246094 C 98.886719 237.488281 97.121094 236.675781 95.375 235.816406 C 93.632812 234.957031 91.914062 234.046875 90.222656 233.085938 C 88.53125 232.125 86.867188 231.121094 85.230469 230.066406 C 83.597656 229.011719 81.996094 227.910156 80.421875 226.765625 C 78.851562 225.617188 77.3125 224.425781 75.8125 223.191406 C 74.308594 221.957031 72.839844 220.679688 71.410156 219.363281 C 69.980469 218.042969 68.589844 216.6875 67.238281 215.289062 C 65.882812 213.890625 64.574219 212.453125 63.304688 210.980469 C 62.03125 209.507812 60.804688 207.996094 59.621094 206.453125 C 58.4375 204.910156 57.300781 203.335938 56.207031 201.726562 C 55.113281 200.117188 54.066406 198.476562 53.066406 196.808594 C 52.066406 195.140625 51.113281 193.441406 50.210938 191.71875 C 49.308594 189.996094 48.457031 188.246094 47.65625 186.476562 C 46.851562 184.703125 46.101562 182.910156 45.402344 181.09375 C 44.703125 179.277344 44.054688 177.445312 43.460938 175.59375 C 42.863281 173.738281 42.324219 171.871094 41.835938 169.988281 C 41.347656 168.105469 40.914062 166.207031 40.535156 164.300781 C 40.15625 162.390625 39.832031 160.472656 39.5625 158.546875 C 39.292969 156.621094 39.078125 154.6875 38.921875 152.75 C 38.761719 150.808594 38.660156 148.867188 38.609375 146.921875 C 38.5625 144.976562 38.570312 143.03125 38.636719 141.085938 C 38.699219 139.140625 38.816406 137.199219 38.992188 135.261719 C 39.167969 133.324219 39.398438 131.394531 39.683594 129.46875 C 39.96875 127.546875 40.308594 125.628906 40.707031 123.726562 C 41.101562 121.820312 41.550781 119.925781 42.054688 118.046875 C 42.558594 116.167969 43.113281 114.304688 43.722656 112.457031 C 44.335938 110.609375 44.996094 108.78125 45.710938 106.972656 C 46.425781 105.164062 47.191406 103.375 48.011719 101.609375 C 48.828125 99.84375 49.695312 98.105469 50.609375 96.386719 C 51.527344 94.671875 52.492188 92.984375 53.507812 91.324219 C 54.519531 89.664062 55.582031 88.03125 56.6875 86.433594 C 57.796875 84.832031 58.945312 83.265625 60.144531 81.730469 C 61.339844 80.199219 62.578125 78.699219 63.863281 77.238281 C 65.144531 75.773438 66.46875 74.351562 67.832031 72.964844 C 69.195312 71.574219 70.597656 70.230469 72.039062 68.921875 C 73.480469 67.617188 74.957031 66.351562 76.472656 65.128906 C 77.984375 63.910156 79.53125 62.730469 81.113281 61.597656 C 82.695312 60.464844 84.308594 59.378906 85.949219 58.335938 C 87.59375 57.296875 89.265625 56.300781 90.964844 55.359375 C 92.664062 54.414062 94.390625 53.515625 96.140625 52.671875 C 97.894531 51.824219 99.667969 51.03125 101.464844 50.285156 C 103.261719 49.539062 105.078125 48.847656 106.914062 48.207031 C 108.75 47.566406 110.605469 46.980469 112.472656 46.445312 C 114.34375 45.910156 116.230469 45.429688 118.125 45.003906 C 120.023438 44.578125 121.933594 44.207031 123.851562 43.890625 C 125.769531 43.574219 127.695312 43.3125 129.628906 43.105469 C 131.5625 42.898438 133.503906 42.75 135.445312 42.652344 C 137.386719 42.558594 139.332031 42.519531 141.277344 42.535156 C 143.222656 42.550781 145.164062 42.621094 147.105469 42.75 C 149.046875 42.875 150.980469 43.058594 152.910156 43.296875 C 154.839844 43.535156 156.761719 43.828125 158.675781 44.179688 C 160.589844 44.527344 162.492188 44.929688 164.382812 45.386719 C 166.273438 45.84375 168.148438 46.355469 170.007812 46.921875 C 171.871094 47.484375 173.714844 48.101562 175.539062 48.773438 C 177.367188 49.445312 179.171875 50.167969 180.953125 50.941406 C 182.738281 51.714844 184.5 52.539062 186.238281 53.414062 C 187.972656 54.289062 189.683594 55.210938 191.371094 56.183594 C 193.054688 57.15625 194.707031 58.179688 196.335938 59.246094 C 197.960938 60.3125 199.554688 61.425781 201.117188 62.585938 C 202.679688 63.746094 204.207031 64.949219 205.699219 66.195312 C 207.191406 67.441406 208.648438 68.730469 210.066406 70.058594 C 211.488281 71.390625 212.867188 72.761719 214.210938 74.167969 C 215.550781 75.578125 216.851562 77.023438 218.109375 78.507812 C 219.367188 79.992188 220.582031 81.511719 221.753906 83.0625 C 222.921875 84.617188 224.050781 86.203125 225.128906 87.820312 C 226.210938 89.4375 227.242188 91.085938 228.230469 92.761719 C 229.214844 94.441406 230.152344 96.144531 231.042969 97.875 C 231.929688 99.605469 232.769531 101.359375 233.554688 103.140625 C 234.34375 104.917969 235.082031 106.71875 235.765625 108.539062 C 236.453125 110.359375 237.082031 112.199219 237.664062 114.054688 C 238.242188 115.914062 238.769531 117.785156 239.242188 119.671875 C 239.714844 121.5625 240.132812 123.460938 240.496094 125.371094 C 240.859375 127.28125 241.167969 129.203125 241.421875 131.132812 C 241.675781 133.0625 241.875 134.996094 242.019531 136.9375 C 242.160156 138.878906 242.25 140.820312 242.28125 142.765625 C 242.3125 144.710938 242.289062 146.65625 242.207031 148.601562 C 242.128906 150.542969 241.992188 152.484375 241.804688 154.421875 C 241.613281 156.355469 241.367188 158.285156 241.066406 160.207031 C 240.765625 162.128906 240.410156 164.042969 239.996094 165.945312 C 239.585938 167.847656 239.121094 169.734375 238.605469 171.609375 C 238.085938 173.484375 237.511719 175.34375 236.886719 177.1875 C 236.261719 179.027344 235.585938 180.851562 234.855469 182.65625 C 234.125 184.457031 233.34375 186.242188 232.515625 188 C 231.683594 189.757812 230.800781 191.492188 229.871094 193.199219 C 228.941406 194.910156 227.960938 196.589844 226.933594 198.242188 C 225.90625 199.894531 224.832031 201.515625 223.714844 203.105469 C 222.59375 204.695312 221.429688 206.253906 220.21875 207.777344 C 219.011719 209.300781 217.757812 210.789062 216.464844 212.242188 C 215.171875 213.695312 213.835938 215.109375 212.460938 216.484375 C 210.105469 218.851562 207.640625 221.097656 205.066406 223.21875 C 202.488281 225.34375 199.816406 227.335938 197.042969 229.191406 C 194.269531 231.050781 191.410156 232.769531 188.46875 234.34375 C 185.527344 235.921875 182.511719 237.347656 179.429688 238.625 C 176.347656 239.902344 173.207031 241.023438 170.011719 241.992188 C 166.816406 242.957031 163.582031 243.765625 160.308594 244.410156 C 157.035156 245.058594 153.734375 245.542969 150.414062 245.863281 C 147.089844 246.183594 143.761719 246.339844 140.421875 246.332031 Z M 140.421875 43.144531 C 138.492188 43.144531 136.558594 43.199219 134.628906 43.308594 C 132.699219 43.421875 130.773438 43.585938 128.855469 43.808594 C 126.933594 44.027344 125.023438 44.304688 123.117188 44.632812 C 121.210938 44.964844 119.320312 45.347656 117.4375 45.789062 C 115.554688 46.226562 113.683594 46.71875 111.832031 47.265625 C 109.976562 47.8125 108.140625 48.410156 106.320312 49.0625 C 104.5 49.714844 102.699219 50.417969 100.921875 51.171875 C 99.140625 51.925781 97.382812 52.730469 95.648438 53.585938 C 93.917969 54.441406 92.207031 55.34375 90.527344 56.296875 C 88.84375 57.25 87.191406 58.253906 85.566406 59.300781 C 83.941406 60.347656 82.347656 61.441406 80.785156 62.582031 C 79.226562 63.71875 77.695312 64.902344 76.203125 66.128906 C 74.707031 67.355469 73.25 68.625 71.828125 69.933594 C 70.40625 71.246094 69.023438 72.59375 67.679688 73.984375 C 66.335938 75.375 65.03125 76.800781 63.769531 78.265625 C 62.507812 79.730469 61.285156 81.226562 60.109375 82.761719 C 58.933594 84.296875 57.800781 85.863281 56.714844 87.460938 C 55.625 89.0625 54.585938 90.691406 53.59375 92.347656 C 52.597656 94.007812 51.652344 95.691406 50.757812 97.40625 C 49.859375 99.117188 49.011719 100.855469 48.214844 102.617188 C 47.414062 104.378906 46.667969 106.160156 45.972656 107.964844 C 45.277344 109.769531 44.632812 111.59375 44.042969 113.433594 C 43.449219 115.273438 42.914062 117.128906 42.425781 119.003906 C 41.941406 120.875 41.511719 122.757812 41.132812 124.65625 C 40.757812 126.550781 40.433594 128.457031 40.167969 130.375 C 39.898438 132.289062 39.683594 134.210938 39.527344 136.136719 C 39.367188 138.0625 39.265625 139.996094 39.21875 141.925781 C 39.171875 143.859375 39.179688 145.792969 39.242188 147.726562 C 39.304688 149.660156 39.421875 151.589844 39.597656 153.515625 C 39.769531 155.441406 40 157.359375 40.28125 159.273438 C 40.566406 161.1875 40.90625 163.089844 41.296875 164.984375 C 41.691406 166.875 42.136719 168.757812 42.636719 170.625 C 43.136719 172.492188 43.691406 174.34375 44.296875 176.179688 C 44.902344 178.015625 45.558594 179.835938 46.269531 181.632812 C 46.980469 183.429688 47.742188 185.207031 48.554688 186.964844 C 49.367188 188.71875 50.226562 190.449219 51.140625 192.152344 C 52.050781 193.859375 53.007812 195.535156 54.015625 197.1875 C 55.023438 198.839844 56.078125 200.457031 57.175781 202.046875 C 58.277344 203.640625 59.421875 205.195312 60.609375 206.71875 C 61.800781 208.246094 63.03125 209.734375 64.304688 211.1875 C 65.582031 212.640625 66.894531 214.058594 68.25 215.4375 C 69.605469 216.816406 71 218.15625 72.433594 219.453125 C 73.867188 220.753906 75.332031 222.007812 76.835938 223.222656 C 78.339844 224.4375 79.878906 225.609375 81.449219 226.734375 C 83.023438 227.859375 84.625 228.941406 86.257812 229.976562 C 87.890625 231.011719 89.550781 232 91.242188 232.9375 C 92.929688 233.878906 94.644531 234.765625 96.386719 235.609375 C 98.125 236.449219 99.890625 237.242188 101.675781 237.980469 C 103.460938 238.71875 105.265625 239.410156 107.09375 240.046875 C 108.917969 240.683594 110.757812 241.265625 112.617188 241.796875 C 114.476562 242.328125 116.347656 242.804688 118.234375 243.230469 C 120.121094 243.652344 122.015625 244.023438 123.925781 244.335938 C 125.832031 244.652344 127.746094 244.914062 129.667969 245.117188 C 131.589844 245.324219 133.515625 245.472656 135.449219 245.570312 C 137.378906 245.664062 139.308594 245.703125 141.242188 245.6875 C 143.175781 245.671875 145.105469 245.601562 147.035156 245.472656 C 148.964844 245.347656 150.886719 245.167969 152.804688 244.929688 C 154.726562 244.691406 156.636719 244.402344 158.535156 244.054688 C 160.4375 243.710938 162.328125 243.308594 164.207031 242.855469 C 166.085938 242.402344 167.949219 241.894531 169.800781 241.332031 C 171.648438 240.769531 173.484375 240.15625 175.296875 239.488281 C 177.113281 238.824219 178.90625 238.105469 180.679688 237.335938 C 182.453125 236.566406 184.203125 235.75 185.929688 234.878906 C 187.65625 234.011719 189.355469 233.089844 191.03125 232.125 C 192.703125 231.15625 194.351562 230.144531 195.964844 229.082031 C 197.582031 228.023438 199.167969 226.914062 200.71875 225.761719 C 202.269531 224.613281 203.789062 223.417969 205.273438 222.175781 C 206.757812 220.9375 208.207031 219.65625 209.617188 218.335938 C 211.027344 217.015625 212.398438 215.652344 213.730469 214.253906 C 215.066406 212.851562 216.355469 211.414062 217.605469 209.941406 C 218.859375 208.464844 220.066406 206.957031 221.230469 205.414062 C 222.394531 203.867188 223.511719 202.292969 224.585938 200.683594 C 225.660156 199.078125 226.6875 197.441406 227.667969 195.773438 C 228.648438 194.105469 229.582031 192.414062 230.464844 190.691406 C 231.347656 188.972656 232.179688 187.230469 232.964844 185.460938 C 233.746094 183.691406 234.480469 181.90625 235.160156 180.09375 C 235.839844 178.285156 236.46875 176.457031 237.046875 174.609375 C 237.621094 172.765625 238.144531 170.90625 238.613281 169.027344 C 239.085938 167.152344 239.5 165.265625 239.863281 163.367188 C 240.222656 161.464844 240.53125 159.558594 240.78125 157.640625 C 241.035156 155.722656 241.234375 153.800781 241.375 151.871094 C 241.515625 149.941406 241.605469 148.011719 241.636719 146.078125 C 241.667969 144.144531 241.644531 142.210938 241.566406 140.28125 C 241.484375 138.347656 241.351562 136.417969 241.164062 134.496094 C 240.972656 132.570312 240.730469 130.652344 240.429688 128.742188 C 240.128906 126.832031 239.777344 124.929688 239.367188 123.042969 C 238.960938 121.152344 238.5 119.273438 237.984375 117.410156 C 237.46875 115.546875 236.898438 113.699219 236.277344 111.867188 C 235.65625 110.035156 234.984375 108.222656 234.257812 106.433594 C 233.535156 104.640625 232.757812 102.867188 231.933594 101.121094 C 231.105469 99.371094 230.230469 97.648438 229.304688 95.953125 C 228.378906 94.253906 227.40625 92.582031 226.386719 90.941406 C 225.367188 89.300781 224.296875 87.6875 223.183594 86.105469 C 222.074219 84.523438 220.914062 82.976562 219.714844 81.460938 C 218.511719 79.949219 217.269531 78.46875 215.980469 77.023438 C 214.695312 75.582031 213.367188 74.175781 212.003906 72.808594 C 209.664062 70.457031 207.214844 68.226562 204.65625 66.113281 C 202.097656 64.003906 199.4375 62.023438 196.683594 60.179688 C 193.929688 58.332031 191.089844 56.625 188.164062 55.058594 C 185.242188 53.492188 182.246094 52.074219 179.183594 50.804688 C 176.117188 49.535156 173 48.417969 169.824219 47.457031 C 166.652344 46.496094 163.4375 45.695312 160.183594 45.050781 C 156.929688 44.40625 153.652344 43.925781 150.351562 43.609375 C 147.050781 43.289062 143.742188 43.136719 140.421875 43.144531 Z M 140.421875 242.78125 C 86.21875 242.78125 42.097656 198.652344 42.097656 144.417969 C 42.097656 90.183594 86.210938 46.050781 140.421875 46.050781 C 194.636719 46.050781 238.742188 90.175781 238.742188 144.417969 C 238.742188 198.660156 194.636719 242.78125 140.421875 242.78125 Z M 140.421875 46.695312 C 86.566406 46.695312 42.742188 90.535156 42.742188 144.417969 C 42.742188 198.296875 86.566406 242.132812 140.421875 242.132812 C 194.28125 242.132812 238.097656 198.296875 238.097656 144.417969 C 238.097656 90.535156 194.28125 46.695312 140.421875 46.695312 Z M 140.421875 46.695312 " fill-opacity="1" fill-rule="nonzero"/><path fill="#000000" d="M 189.144531 150.550781 C 188.855469 150.550781 188.574219 150.605469 188.304688 150.714844 C 188.035156 150.824219 187.796875 150.980469 187.585938 151.183594 C 187.378906 151.382812 187.210938 151.617188 187.09375 151.878906 C 186.972656 152.144531 186.90625 152.421875 186.894531 152.714844 C 186.820312 154.1875 186.675781 155.652344 186.460938 157.113281 C 186.25 158.574219 185.96875 160.019531 185.617188 161.453125 C 185.265625 162.886719 184.847656 164.300781 184.363281 165.695312 C 183.878906 167.089844 183.328125 168.457031 182.710938 169.796875 C 182.097656 171.140625 181.421875 172.449219 180.679688 173.722656 C 179.941406 175 179.140625 176.238281 178.285156 177.441406 C 177.425781 178.640625 176.515625 179.800781 175.546875 180.914062 C 174.582031 182.027344 173.5625 183.09375 172.492188 184.109375 C 171.425781 185.125 170.308594 186.089844 169.148438 187 C 167.988281 187.914062 166.789062 188.765625 165.546875 189.5625 C 164.304688 190.359375 163.027344 191.097656 161.714844 191.769531 C 160.40625 192.445312 159.0625 193.058594 157.695312 193.605469 C 156.324219 194.152344 154.933594 194.632812 153.515625 195.050781 C 152.101562 195.464844 150.667969 195.8125 149.222656 196.089844 C 147.773438 196.371094 146.3125 196.578125 144.84375 196.71875 C 143.375 196.859375 141.90625 196.929688 140.429688 196.929688 C 138.957031 196.929688 137.484375 196.859375 136.015625 196.71875 C 134.546875 196.578125 133.089844 196.371094 131.640625 196.089844 C 130.191406 195.8125 128.757812 195.464844 127.34375 195.050781 C 125.929688 194.632812 124.535156 194.152344 123.164062 193.605469 C 121.796875 193.058594 120.457031 192.445312 119.144531 191.769531 C 117.832031 191.097656 116.554688 190.359375 115.3125 189.5625 C 114.074219 188.765625 112.871094 187.914062 111.710938 187 C 110.550781 186.089844 109.4375 185.125 108.367188 184.109375 C 107.296875 183.09375 106.28125 182.027344 105.3125 180.914062 C 104.34375 179.800781 103.433594 178.640625 102.574219 177.441406 C 101.71875 176.238281 100.917969 175 100.179688 173.722656 C 99.441406 172.449219 98.761719 171.140625 98.148438 169.796875 C 97.53125 168.457031 96.984375 167.089844 96.496094 165.695312 C 96.011719 164.300781 95.59375 162.886719 95.242188 161.453125 C 94.894531 160.019531 94.609375 158.574219 94.398438 157.113281 C 94.183594 155.652344 94.042969 154.1875 93.96875 152.714844 C 93.953125 152.421875 93.886719 152.144531 93.765625 151.878906 C 93.648438 151.617188 93.484375 151.382812 93.273438 151.183594 C 93.0625 150.980469 92.824219 150.824219 92.554688 150.714844 C 92.285156 150.605469 92.003906 150.550781 91.714844 150.550781 C 91.40625 150.550781 91.109375 150.609375 90.828125 150.730469 C 90.542969 150.851562 90.292969 151.023438 90.082031 151.246094 C 89.867188 151.46875 89.707031 151.722656 89.597656 152.011719 C 89.488281 152.300781 89.441406 152.597656 89.457031 152.90625 C 89.53125 154.53125 89.679688 156.144531 89.90625 157.753906 C 90.132812 159.359375 90.4375 160.953125 90.816406 162.535156 C 91.195312 164.113281 91.648438 165.671875 92.175781 167.207031 C 92.703125 168.742188 93.304688 170.25 93.976562 171.726562 C 94.648438 173.207031 95.386719 174.648438 96.195312 176.058594 C 97.003906 177.464844 97.878906 178.832031 98.820312 180.15625 C 99.757812 181.480469 100.757812 182.757812 101.820312 183.988281 C 102.882812 185.214844 104 186.390625 105.171875 187.515625 C 106.347656 188.636719 107.570312 189.699219 108.84375 190.707031 C 110.121094 191.710938 111.441406 192.652344 112.804688 193.53125 C 114.167969 194.410156 115.574219 195.222656 117.015625 195.96875 C 118.457031 196.714844 119.933594 197.390625 121.4375 197.996094 C 122.945312 198.597656 124.476562 199.128906 126.035156 199.589844 C 127.59375 200.046875 129.167969 200.429688 130.761719 200.738281 C 132.355469 201.046875 133.960938 201.277344 135.578125 201.433594 C 137.195312 201.585938 138.8125 201.664062 140.4375 201.664062 C 142.058594 201.664062 143.679688 201.585938 145.296875 201.433594 C 146.910156 201.277344 148.515625 201.046875 150.109375 200.738281 C 151.703125 200.429688 153.28125 200.046875 154.835938 199.589844 C 156.394531 199.128906 157.925781 198.597656 159.433594 197.996094 C 160.941406 197.390625 162.414062 196.714844 163.859375 195.96875 C 165.300781 195.222656 166.703125 194.410156 168.070312 193.53125 C 169.433594 192.652344 170.753906 191.710938 172.027344 190.707031 C 173.304688 189.699219 174.527344 188.636719 175.699219 187.515625 C 176.875 186.390625 177.992188 185.214844 179.054688 183.988281 C 180.113281 182.757812 181.113281 181.480469 182.054688 180.15625 C 182.992188 178.832031 183.867188 177.464844 184.675781 176.058594 C 185.484375 174.648438 186.226562 173.207031 186.898438 171.726562 C 187.570312 170.25 188.167969 168.742188 188.695312 167.207031 C 189.222656 165.671875 189.679688 164.113281 190.058594 162.535156 C 190.4375 160.953125 190.738281 159.359375 190.964844 157.753906 C 191.195312 156.144531 191.34375 154.53125 191.417969 152.90625 C 191.429688 152.597656 191.382812 152.296875 191.273438 152.007812 C 191.164062 151.71875 191.003906 151.460938 190.789062 151.238281 C 190.574219 151.015625 190.324219 150.84375 190.039062 150.726562 C 189.753906 150.605469 189.453125 150.546875 189.144531 150.550781 Z M 189.144531 150.550781 " fill-opacity="1" fill-rule="nonzero"/><path fill="#000000" d="M 192.4375 152.957031 C 192.359375 154.613281 192.203125 156.257812 191.964844 157.894531 C 191.730469 159.53125 191.417969 161.15625 191.03125 162.765625 C 190.640625 164.371094 190.175781 165.957031 189.636719 167.523438 C 189.09375 169.085938 188.480469 170.621094 187.792969 172.125 C 187.109375 173.632812 186.351562 175.101562 185.523438 176.535156 C 184.699219 177.96875 183.804688 179.359375 182.847656 180.707031 C 181.886719 182.054688 180.867188 183.351562 179.78125 184.605469 C 178.699219 185.855469 177.558594 187.050781 176.363281 188.195312 C 175.167969 189.335938 173.917969 190.417969 172.617188 191.441406 C 171.316406 192.464844 169.972656 193.421875 168.582031 194.316406 C 167.191406 195.214844 165.757812 196.039062 164.289062 196.796875 C 162.820312 197.554688 161.316406 198.242188 159.78125 198.859375 C 158.246094 199.472656 156.683594 200.015625 155.097656 200.480469 C 153.511719 200.945312 151.90625 201.335938 150.28125 201.648438 C 148.65625 201.964844 147.019531 202.199219 145.375 202.355469 C 143.726562 202.511719 142.078125 202.589844 140.421875 202.589844 C 138.769531 202.589844 137.121094 202.511719 135.472656 202.355469 C 133.828125 202.199219 132.191406 201.964844 130.566406 201.648438 C 128.941406 201.335938 127.335938 200.945312 125.75 200.480469 C 124.164062 200.015625 122.601562 199.472656 121.066406 198.859375 C 119.53125 198.242188 118.027344 197.554688 116.558594 196.796875 C 115.089844 196.039062 113.65625 195.214844 112.265625 194.316406 C 110.875 193.421875 109.527344 192.464844 108.230469 191.441406 C 106.929688 190.417969 105.679688 189.335938 104.484375 188.195312 C 103.289062 187.050781 102.148438 185.855469 101.0625 184.605469 C 99.980469 183.355469 98.960938 182.054688 98 180.707031 C 97.042969 179.359375 96.148438 177.96875 95.324219 176.535156 C 94.496094 175.101562 93.738281 173.632812 93.050781 172.125 C 92.367188 170.621094 91.753906 169.085938 91.210938 167.523438 C 90.671875 165.957031 90.207031 164.371094 89.816406 162.765625 C 89.425781 161.15625 89.117188 159.53125 88.878906 157.894531 C 88.644531 156.257812 88.488281 154.613281 88.410156 152.957031 C 88.359375 152.019531 88.660156 151.214844 89.316406 150.539062 C 89.964844 149.859375 90.761719 149.519531 91.703125 149.519531 C 92.125 149.515625 92.535156 149.597656 92.925781 149.753906 C 93.320312 149.910156 93.671875 150.136719 93.976562 150.429688 C 94.28125 150.722656 94.523438 151.0625 94.699219 151.449219 C 94.871094 151.832031 94.96875 152.238281 94.988281 152.660156 C 95.054688 154.105469 95.191406 155.542969 95.398438 156.972656 C 95.605469 158.402344 95.878906 159.820312 96.21875 161.226562 C 96.558594 162.628906 96.964844 164.015625 97.4375 165.378906 C 97.910156 166.746094 98.445312 168.085938 99.046875 169.398438 C 99.648438 170.714844 100.308594 171.996094 101.03125 173.25 C 101.753906 174.5 102.53125 175.714844 103.371094 176.890625 C 104.207031 178.070312 105.101562 179.203125 106.046875 180.296875 C 106.992188 181.386719 107.988281 182.433594 109.035156 183.429688 C 110.078125 184.425781 111.167969 185.371094 112.304688 186.265625 C 113.441406 187.160156 114.617188 187.996094 115.832031 188.777344 C 117.046875 189.558594 118.296875 190.28125 119.582031 190.945312 C 120.863281 191.605469 122.175781 192.207031 123.519531 192.742188 C 124.859375 193.28125 126.222656 193.75 127.609375 194.160156 C 128.996094 194.566406 130.398438 194.90625 131.816406 195.179688 C 133.234375 195.453125 134.660156 195.660156 136.101562 195.796875 C 137.539062 195.933594 138.980469 196 140.421875 196 C 141.867188 196 143.308594 195.933594 144.746094 195.796875 C 146.183594 195.660156 147.613281 195.453125 149.03125 195.179688 C 150.449219 194.90625 151.851562 194.566406 153.238281 194.160156 C 154.625 193.75 155.988281 193.28125 157.328125 192.742188 C 158.671875 192.207031 159.984375 191.605469 161.265625 190.941406 C 162.550781 190.28125 163.800781 189.558594 165.015625 188.777344 C 166.230469 187.996094 167.40625 187.160156 168.542969 186.265625 C 169.675781 185.371094 170.769531 184.425781 171.8125 183.429688 C 172.859375 182.433594 173.855469 181.386719 174.800781 180.296875 C 175.746094 179.203125 176.640625 178.070312 177.476562 176.890625 C 178.316406 175.714844 179.09375 174.5 179.816406 173.25 C 180.539062 171.996094 181.199219 170.714844 181.800781 169.398438 C 182.402344 168.085938 182.9375 166.746094 183.410156 165.378906 C 183.882812 164.015625 184.289062 162.628906 184.628906 161.226562 C 184.96875 159.820312 185.242188 158.402344 185.449219 156.972656 C 185.65625 155.542969 185.792969 154.105469 185.859375 152.660156 C 185.878906 152.238281 185.976562 151.832031 186.148438 151.449219 C 186.324219 151.0625 186.566406 150.722656 186.871094 150.429688 C 187.175781 150.136719 187.527344 149.910156 187.921875 149.753906 C 188.3125 149.597656 188.722656 149.515625 189.144531 149.519531 C 190.085938 149.519531 190.878906 149.859375 191.53125 150.539062 C 192.1875 151.214844 192.488281 152.019531 192.4375 152.957031 Z M 114.609375 132.453125 C 115.28125 132.457031 115.945312 132.390625 116.605469 132.257812 C 117.265625 132.128906 117.902344 131.933594 118.523438 131.679688 C 119.144531 131.421875 119.734375 131.105469 120.292969 130.734375 C 120.851562 130.363281 121.367188 129.9375 121.839844 129.464844 C 122.316406 128.988281 122.742188 128.472656 123.113281 127.914062 C 123.488281 127.355469 123.800781 126.765625 124.058594 126.148438 C 124.316406 125.527344 124.511719 124.886719 124.640625 124.226562 C 124.773438 123.570312 124.839844 122.90625 124.839844 122.234375 C 124.839844 121.5625 124.773438 120.894531 124.644531 120.238281 C 124.511719 119.578125 124.320312 118.9375 124.0625 118.320312 C 123.804688 117.699219 123.492188 117.109375 123.117188 116.550781 C 122.746094 115.992188 122.320312 115.476562 121.847656 115 C 121.375 114.523438 120.855469 114.101562 120.300781 113.726562 C 119.742188 113.355469 119.152344 113.039062 118.53125 112.78125 C 117.910156 112.523438 117.273438 112.332031 116.613281 112.199219 C 115.957031 112.070312 115.289062 112.003906 114.621094 112.003906 C 113.949219 112.003906 113.285156 112.066406 112.625 112.199219 C 111.964844 112.328125 111.328125 112.523438 110.707031 112.78125 C 110.085938 113.039062 109.496094 113.351562 108.941406 113.726562 C 108.382812 114.097656 107.863281 114.523438 107.390625 114.996094 C 106.914062 115.472656 106.492188 115.988281 106.117188 116.546875 C 105.746094 117.105469 105.429688 117.695312 105.175781 118.316406 C 104.917969 118.933594 104.722656 119.574219 104.59375 120.234375 C 104.460938 120.890625 104.394531 121.558594 104.394531 122.230469 C 104.394531 122.898438 104.460938 123.5625 104.59375 124.222656 C 104.722656 124.878906 104.917969 125.519531 105.175781 126.140625 C 105.433594 126.757812 105.746094 127.347656 106.117188 127.90625 C 106.492188 128.464844 106.914062 128.980469 107.390625 129.457031 C 107.863281 129.929688 108.378906 130.355469 108.9375 130.726562 C 109.496094 131.101562 110.082031 131.414062 110.703125 131.671875 C 111.320312 131.929688 111.960938 132.125 112.617188 132.257812 C 113.277344 132.386719 113.941406 132.453125 114.609375 132.453125 Z M 166.238281 132.453125 C 166.90625 132.457031 167.574219 132.390625 168.230469 132.257812 C 168.890625 132.128906 169.527344 131.933594 170.148438 131.679688 C 170.769531 131.421875 171.359375 131.105469 171.917969 130.734375 C 172.476562 130.363281 172.992188 129.9375 173.46875 129.464844 C 173.941406 128.988281 174.367188 128.472656 174.738281 127.914062 C 175.113281 127.355469 175.425781 126.765625 175.683594 126.148438 C 175.941406 125.527344 176.136719 124.886719 176.265625 124.226562 C 176.398438 123.570312 176.464844 122.90625 176.464844 122.234375 C 176.464844 121.5625 176.398438 120.894531 176.269531 120.238281 C 176.136719 119.578125 175.945312 118.9375 175.6875 118.320312 C 175.429688 117.699219 175.117188 117.109375 174.742188 116.550781 C 174.371094 115.992188 173.949219 115.476562 173.472656 115 C 173 114.523438 172.480469 114.101562 171.925781 113.726562 C 171.367188 113.355469 170.777344 113.039062 170.15625 112.78125 C 169.535156 112.523438 168.898438 112.332031 168.238281 112.199219 C 167.582031 112.070312 166.917969 112.003906 166.246094 112.003906 C 165.574219 112.003906 164.910156 112.066406 164.25 112.199219 C 163.59375 112.328125 162.953125 112.523438 162.332031 112.78125 C 161.710938 113.039062 161.125 113.351562 160.566406 113.726562 C 160.007812 114.097656 159.492188 114.523438 159.015625 114.996094 C 158.539062 115.472656 158.117188 115.988281 157.742188 116.546875 C 157.371094 117.105469 157.054688 117.695312 156.800781 118.316406 C 156.542969 118.933594 156.347656 119.574219 156.21875 120.234375 C 156.085938 120.890625 156.019531 121.558594 156.019531 122.230469 C 156.019531 122.898438 156.085938 123.5625 156.21875 124.222656 C 156.347656 124.878906 156.542969 125.519531 156.800781 126.140625 C 157.058594 126.757812 157.371094 127.347656 157.746094 127.90625 C 158.117188 128.464844 158.539062 128.980469 159.015625 129.457031 C 159.488281 129.929688 160.003906 130.355469 160.5625 130.726562 C 161.121094 131.101562 161.707031 131.414062 162.328125 131.671875 C 162.945312 131.929688 163.585938 132.125 164.242188 132.257812 C 164.902344 132.386719 165.566406 132.453125 166.238281 132.453125 Z M 166.238281 132.453125 " fill-opacity="1" fill-rule="nonzero"/></svg>